<svg width="13" height="12" viewBox="0 0 13 12" fill="none" xmlns="http://www.w3.org/2000/svg">
<path d="M6.32882 0.095258L5.75429 0.631781C5.61832 0.758765 5.61832 0.96466 5.75429 1.09167L10.2558 5.29544H0.348214C0.155913 5.29544 0 5.44104 0 5.62062V6.37938C0 6.55896 0.155913 6.70456 0.348214 6.70456H10.2558L5.75429 10.9084C5.61832 11.0353 5.61832 11.2412 5.75429 11.3682L6.32882 11.9048C6.46479 12.0317 6.68527 12.0317 6.82128 11.9048L12.898 6.22995C13.034 6.10297 13.034 5.89708 12.898 5.77007L6.82125 0.095258C6.68527 -0.0317527 6.46479 -0.0317527 6.32882 0.095258Z" fill="url(#paint0_linear_1299_514)"/>
<defs>
<linearGradient id="paint0_linear_1299_514" x1="6.5" y1="0" x2="6.5" y2="12" gradientUnits="userSpaceOnUse">
<stop class="top-stop" offset="0.0208333" stop-color="#7E30E1"/>
<stop class="bottom-stop" offset="0.911458" stop-color="#0072F7"/>
</linearGradient>
</defs>
</svg>
