<svg fill="none" xmlns="http://www.w3.org/2000/svg" viewBox="0 0 25 25"><path d="M0 12.5C0 5.596 5.596 0 12.5 0S25 5.596 25 12.5 19.404 25 12.5 25 0 19.404 0 12.5Zm8.545-2.339 2.3 2.295-2.3 2.339c-.454.459-.454 1.201 0 1.616.459.498 1.201.498 1.616 0l2.295-2.256 2.339 2.256c.459.498 1.201.498 1.616 0 .498-.415.498-1.157 0-1.616l-2.256-2.339 2.256-2.295c.498-.415.498-1.157 0-1.616-.415-.454-1.157-.454-1.616 0l-2.339 2.3-2.295-2.3c-.415-.454-1.157-.454-1.616 0-.454.459-.454 1.201 0 1.616Z" fill="#D6D6D6"/></svg>