<svg width="12" height="12" viewBox="0 0 16 16" fill="none" xmlns="http://www.w3.org/2000/svg">
<path fill-rule="evenodd" clip-rule="evenodd" d="M12.5858 2H10C9.44771 2 9 1.55228 9 1C9 0.447715 9.44771 0 10 0H16V6C16 6.55228 15.5523 7 15 7C14.4477 7 14 6.55228 14 6V3.41421L5.70711 11.7071C5.31658 12.0976 4.68342 12.0976 4.29289 11.7071C3.90237 11.3166 3.90237 10.6834 4.29289 10.2929L12.5858 2ZM2 14H12V9C12 8.44771 12.4477 8 13 8C13.5523 8 14 8.44771 14 9V16H0V2H7C7.55228 2 8 2.44772 8 3C8 3.55228 7.55228 4 7 4H2V14Z" fill="#4E4E4E"/>
</svg>
