<svg width="84" height="68" viewBox="0 0 84 68" fill="none" xmlns="http://www.w3.org/2000/svg">
<path d="M82.6542 34.7564C82.8738 34.5664 83 34.2904 83 34C83 33.7096 82.8738 33.4336 82.6542 33.2436L45.6542 1.24364C45.3582 0.987646 44.9401 0.927831 44.5842 1.09056C44.2283 1.25329 44 1.60867 44 2V19H2C1.44772 19 1 19.4477 1 20V48C1 48.5523 1.44772 49 2 49H44V66C44 66.3913 44.2283 66.7467 44.5842 66.9094C44.9401 67.0722 45.3582 67.0124 45.6542 66.7564L82.6542 34.7564Z" fill="#031D60" stroke="white" stroke-width="2" stroke-linejoin="round"/>
</svg>
