<svg width="18" height="13" viewBox="0 0 18 13" fill="none" xmlns="http://www.w3.org/2000/svg">
<path d="M10.9688 0C11.5242 0 12.027 0.314844 12.252 0.80336C12.4488 1.29323 12.3856 1.86198 12.0129 2.26146L8.43753 6.08698V11.9167C8.43753 12.3263 8.19847 12.7021 7.81527 12.8849C7.43558 13.0677 6.97855 13.0305 6.63754 12.7833L4.38755 11.1583C4.10278 10.9552 3.93755 10.6336 3.93755 10.2917V6.08698L0.361118 2.26146C-0.0104895 1.86198 -0.104279 1.29323 0.121669 0.80336C0.347583 0.314844 0.850843 0 1.37467 0H10.9688ZM16.875 10.8333C17.4973 10.8333 18 11.3174 18 11.9167C18 12.5159 17.4973 13 16.875 13H12.375C11.7528 13 11.25 12.5159 11.25 11.9167C11.25 11.3174 11.7528 10.8333 12.375 10.8333H16.875ZM11.25 6.5C11.25 5.90078 11.7528 5.41667 12.375 5.41667H16.875C17.4973 5.41667 18 5.90078 18 6.5C18 7.09922 17.4973 7.58333 16.875 7.58333H12.375C11.7528 7.58333 11.25 7.09922 11.25 6.5ZM16.875 0C17.4973 0 18 0.48513 18 1.08333C18 1.68255 17.4973 2.16667 16.875 2.16667H14.625C14.0027 2.16667 13.5 1.68255 13.5 1.08333C13.5 0.48513 14.0027 0 14.625 0H16.875Z" fill="white"/>
</svg>
