<svg width="32" height="32" viewBox="0 0 32 32" fill="none" xmlns="http://www.w3.org/2000/svg">
<path d="M30.2761 0.390524C30.7968 0.911223 30.7968 1.75544 30.2761 2.27614L21.8856 10.6667H25.3333C26.0697 10.6667 26.6667 11.2636 26.6667 12C26.6667 12.7364 26.0697 13.3333 25.3333 13.3333H17.3333V5.33333C17.3333 4.59695 17.9303 4 18.6667 4C19.403 4 20 4.59695 20 5.33333V8.78105L28.3905 0.390524C28.9112 -0.130175 29.7554 -0.130175 30.2761 0.390524Z" fill="#1E63F2"/>
<path d="M14.6667 8H2.66667V25.8824L11.3333 14.6667L17.8189 23.0597L21.3333 18.6667L29.3333 28.6667V8L32 5.33333V32H0V5.33333H14.6667V8Z" fill="#1E63F2"/>
</svg>
