<svg width="24" height="24" viewBox="0 0 24 24" fill="none" xmlns="http://www.w3.org/2000/svg">
<path fill-rule="evenodd" clip-rule="evenodd" d="M6 12C9.31371 12 12 9.31371 12 6C12 2.68629 9.31371 0 6 0C2.68629 0 0 2.68629 0 6C0 9.31371 2.68629 12 6 12ZM6 10C8.20914 10 10 8.20914 10 6C10 3.79086 8.20914 2 6 2C3.79086 2 2 3.79086 2 6C2 8.20914 3.79086 10 6 10Z" fill="#1E63F2"/>
<path d="M11 12L4 24H18L11 12Z" fill="#1E63F2"/>
<path fill-rule="evenodd" clip-rule="evenodd" d="M14 14V4H24V14H14ZM16 6H22V12H16V6Z" fill="#1E63F2"/>
</svg>
