<svg width="18" height="18" viewBox="0 0 18 18" fill="none" xmlns="http://www.w3.org/2000/svg">
<path d="M17.7223 16.5586L13.0114 11.8477C14.0309 10.5996 14.5934 9.02812 14.5934 7.3125C14.5934 3.27305 11.3193 0 7.28088 0C3.24247 0 0 3.2741 0 7.3125C0 11.3509 3.27376 14.625 7.28088 14.625C8.99615 14.625 10.5697 14.0305 11.816 13.0416L16.527 17.7525C16.7239 17.9191 16.9418 18 17.1563 18C17.3707 18 17.588 17.9176 17.7529 17.7528C18.0809 17.4234 18.0809 16.8891 17.7223 16.5586ZM1.68751 7.3125C1.68751 4.21102 4.21103 1.6875 7.31252 1.6875C10.414 1.6875 12.9375 4.21102 12.9375 7.3125C12.9375 10.414 10.414 12.9375 7.31252 12.9375C4.21103 12.9375 1.68751 10.4133 1.68751 7.3125Z" fill="#4E4E4E"/>
</svg>
