<svg width="24" height="20" viewBox="0 0 24 20" fill="none" xmlns="http://www.w3.org/2000/svg">
<path fill-rule="evenodd" clip-rule="evenodd" d="M22.2353 16.4707C23.2099 16.4707 24 17.2608 24 18.2354V18.2354C24 19.21 23.2099 20.0001 22.2353 20.0001H1.76471C0.790086 20.0001 0 19.21 0 18.2354V18.2354C0 17.2608 0.790086 16.4707 1.76471 16.4707H22.2353Z" fill="#0439A6"/>
<path fill-rule="evenodd" clip-rule="evenodd" d="M22.2353 8.23438C23.2099 8.23438 24 9.02446 24 9.99908V9.99908C24 10.9737 23.2099 11.7638 22.2353 11.7638H1.76471C0.790086 11.7638 0 10.9737 0 9.99908V9.99908C0 9.02446 0.790086 8.23438 1.76471 8.23438H22.2353Z" fill="#0439A6"/>
<path fill-rule="evenodd" clip-rule="evenodd" d="M22.2353 0C23.2099 0 24 0.790086 24 1.76471V1.76471C24 2.73933 23.2099 3.52941 22.2353 3.52941H1.76471C0.790086 3.52941 0 2.73933 0 1.76471V1.76471C0 0.790086 0.790086 0 1.76471 0H22.2353Z" fill="#0439A6"/>
</svg>
