<svg width="18" height="18" viewBox="0 0 18 18" fill="none" xmlns="http://www.w3.org/2000/svg">
  <path d="M0 0.75C0 0.335786 0.335786 0 0.75 0H17.25C17.6642 0 18 0.335786 18 0.75C18 1.16421 17.6642 1.5 17.25 1.5H0.75C0.335787 1.5 0 1.16421 0 0.75Z" fill="white"/>
  <path d="M0 5.25C0 4.83579 0.335786 4.5 0.75 4.5H17.25C17.6642 4.5 18 4.83579 18 5.25C18 5.66421 17.6642 6 17.25 6H0.75C0.335787 6 0 5.66421 0 5.25Z" fill="white"/>
  <path d="M0 9.75C0 9.33579 0.335786 9 0.75 9H17.25C17.6642 9 18 9.33579 18 9.75C18 10.1642 17.6642 10.5 17.25 10.5H0.75C0.335787 10.5 0 10.1642 0 9.75Z" fill="white"/>
  <path fill-rule="evenodd" clip-rule="evenodd" d="M9 18L6 13.5H12L9 18Z" fill="white"/>
</svg>
