<svg width="78" height="78" viewBox="0 0 78 78" fill="none" xmlns="http://www.w3.org/2000/svg">
<path d="M28.0312 0C32.7387 0 36.5625 3.81926 36.5625 8.53125V19.5H32.4035C31.459 17.352 29.3109 15.8438 26.8125 15.8438C23.4457 15.8438 20.7188 18.5707 20.7188 21.9375C20.7188 25.3043 23.4457 28.0312 26.8125 28.0312C29.3109 28.0312 31.459 26.523 32.4035 24.375H36.5625V39H29.25C25.2129 39 21.9375 42.2754 21.9375 46.3125V48.034C19.7895 48.9785 18.2812 51.1266 18.2812 53.625C18.2812 56.9918 21.0082 59.7188 24.375 59.7188C27.7418 59.7188 30.4688 56.9918 30.4688 53.625C30.4688 51.1266 28.9605 48.9785 26.8125 48.034V46.3125C26.8125 44.9719 27.9094 43.875 29.25 43.875H36.5625V69.4688C36.5625 74.1762 32.7387 78 28.0312 78C23.6285 78 20.0027 74.6637 19.5457 70.3676C18.7535 70.5809 17.9156 70.6875 17.0625 70.6875C11.6771 70.6875 7.3125 66.3152 7.3125 60.9375C7.3125 59.8102 7.50598 58.7133 7.85941 57.7078C3.26473 55.9711 0 51.5227 0 46.3125C0 41.4527 2.85035 37.248 6.97277 35.298C5.65957 33.6375 4.875 31.398 4.875 29.25C4.875 24.573 8.1641 20.673 12.5546 19.7133C12.3155 18.8754 12.1875 17.9766 12.1875 17.0625C12.1875 12.5013 15.3258 8.67141 19.5457 7.60652C20.0027 3.33023 23.6285 0 28.0312 0ZM21.9375 53.625C21.9375 52.2844 23.0344 51.1875 24.375 51.1875C25.7156 51.1875 26.8125 52.2844 26.8125 53.625C26.8125 54.9656 25.7156 56.0625 24.375 56.0625C23.0344 56.0625 21.9375 54.9656 21.9375 53.625ZM26.8125 19.5C28.1531 19.5 29.25 20.5969 29.25 21.9375C29.25 23.2781 28.1531 24.375 26.8125 24.375C25.4719 24.375 24.375 23.2781 24.375 21.9375C24.375 20.5969 25.4719 19.5 26.8125 19.5ZM58.4543 7.60652C62.6742 8.67141 65.8125 12.5013 65.8125 17.0625C65.8125 17.9766 65.6906 18.8754 65.4469 19.7133C69.8344 20.673 73.125 24.573 73.125 29.25C73.125 31.398 72.348 33.6375 71.0227 35.298C75.1512 37.248 78 41.4527 78 46.3125C78 51.5227 74.7398 55.9711 70.1391 57.7078C70.4894 58.7133 70.6875 59.8102 70.6875 60.9375C70.6875 66.3152 66.3152 70.6875 60.9375 70.6875C60.0844 70.6875 59.2465 70.5809 58.4543 70.3676C57.9973 74.6637 54.3715 78 49.9688 78C45.2613 78 41.4375 74.1762 41.4375 69.4688V58.5H50.4715C51.416 60.648 53.5641 62.1562 56.0625 62.1562C59.4293 62.1562 62.1562 59.4293 62.1562 56.0625C62.1562 52.6957 59.4293 49.9688 56.0625 49.9688C53.5641 49.9688 51.416 51.477 50.4715 53.625H41.4375V24.375H48.75C50.0906 24.375 51.1875 25.4719 51.1875 26.8125V28.534C49.0395 29.4785 47.5312 31.6266 47.5312 34.125C47.5312 37.4918 50.2582 40.2188 53.625 40.2188C56.9918 40.2188 59.7188 37.4918 59.7188 34.125C59.7188 31.6266 58.2105 29.4785 56.0625 28.534V26.8125C56.0625 22.7754 52.7871 19.5 48.75 19.5H41.4375V8.53125C41.4375 3.81926 45.2613 0 49.9688 0C54.3715 0 57.9973 3.33023 58.4543 7.60652ZM56.0625 34.125C56.0625 35.4656 54.9656 36.5625 53.625 36.5625C52.2844 36.5625 51.1875 35.4656 51.1875 34.125C51.1875 32.7844 52.2844 31.6875 53.625 31.6875C54.9656 31.6875 56.0625 32.7844 56.0625 34.125ZM58.5 56.0625C58.5 57.4031 57.4031 58.5 56.0625 58.5C54.7219 58.5 53.625 57.4031 53.625 56.0625C53.625 54.7219 54.7219 53.625 56.0625 53.625C57.4031 53.625 58.5 54.7219 58.5 56.0625Z" fill="#9F9F9F"/>
</svg>
