<svg width="16" height="16" viewBox="0 0 16 16" fill="none" xmlns="http://www.w3.org/2000/svg">
<path d="M7 1C7 0.447715 7.44771 0 8 0C8.55229 0 9 0.447715 9 1V7H15C15.5523 7 16 7.44771 16 8C16 8.55229 15.5523 9 15 9H9V15C9 15.5523 8.55229 16 8 16C7.44771 16 7 15.5523 7 15V9H1C0.447715 9 0 8.55229 0 8C0 7.44771 0.447715 7 1 7H7V1Z" fill="url(#paint0_linear_1623_1972)"/>
<defs>
<linearGradient id="paint0_linear_1623_1972" x1="8" y1="0" x2="8" y2="16" gradientUnits="userSpaceOnUse">
<stop offset="0.0208333" stop-color="#7E30E1"/>
<stop offset="0.609375" stop-color="#0072F7"/>
<stop offset="0.911458" stop-color="#67ADFF"/>
</linearGradient>
</defs>
</svg>
