<svg width="67" height="67" viewBox="0 0 67 67" fill="none" xmlns="http://www.w3.org/2000/svg">
<path d="M0 33.5C0 14.9965 14.9965 0 33.5 0C52.0035 0 67 14.9965 67 33.5C67 52.0035 52.0035 67 33.5 67C14.9965 67 0 52.0035 0 33.5ZM22.9004 27.2318L29.0639 33.3822L22.9004 39.6504C21.6834 40.8805 21.6834 42.8695 22.9004 43.9818C24.1305 45.3166 26.1195 45.3166 27.2318 43.9818L33.3822 37.9361L39.6504 43.9818C40.8805 45.3166 42.8695 45.3166 43.9818 43.9818C45.3166 42.8695 45.3166 40.8805 43.9818 39.6504L37.9361 33.3822L43.9818 27.2318C45.3166 26.1195 45.3166 24.1305 43.9818 22.9004C42.8695 21.6834 40.8805 21.6834 39.6504 22.9004L33.3822 29.0639L27.2318 22.9004C26.1195 21.6834 24.1305 21.6834 22.9004 22.9004C21.6834 24.1305 21.6834 26.1195 22.9004 27.2318Z" fill="url(#paint0_linear_2221_8187)"/>
<defs>
<linearGradient id="paint0_linear_2221_8187" x1="33.5" y1="0" x2="33.5" y2="67" gradientUnits="userSpaceOnUse">
<stop offset="0.0208333" stop-color="#7E30E1"/>
<stop offset="0.609375" stop-color="#0072F7"/>
<stop offset="0.911458" stop-color="#67ADFF"/>
</linearGradient>
</defs>
</svg>
