<svg width="110" height="110" viewBox="0 0 110 110" fill="none" xmlns="http://www.w3.org/2000/svg">
<circle cx="55" cy="55" r="53" stroke="#4E4E4E" stroke-width="4"/>
<path d="M51.5536 62.904V59.943C51.5536 58.221 51.8056 56.772 52.3096 55.596C52.8136 54.42 53.4436 53.412 54.1996 52.572C54.9976 51.69 55.8376 50.934 56.7196 50.304C57.6016 49.632 58.4206 48.96 59.1766 48.288C59.9746 47.616 60.6256 46.881 61.1296 46.083C61.6336 45.285 61.8856 44.34 61.8856 43.248C61.8856 42.828 61.8226 42.324 61.6966 41.736C61.5706 41.106 61.2976 40.497 60.8776 39.909C60.4576 39.321 59.8066 38.838 58.9246 38.46C58.0426 38.04 56.8456 37.83 55.3336 37.83C53.7796 37.83 52.5196 38.061 51.5536 38.523C50.6296 38.985 49.9366 39.573 49.4746 40.287C49.0126 40.959 48.6976 41.673 48.5296 42.429C48.3616 43.143 48.2776 43.794 48.2776 44.382C48.2776 44.676 48.2776 44.97 48.2776 45.264C48.2776 45.516 48.2986 45.789 48.3406 46.083H40.5286C40.4866 45.873 40.4236 45.6 40.3396 45.264C40.2976 44.886 40.2766 44.424 40.2766 43.878C40.2766 42.45 40.4866 41.106 40.9066 39.846C41.3266 38.544 41.9356 37.368 42.7336 36.318C43.5736 35.226 44.6236 34.302 45.8836 33.546C47.1436 32.748 48.5926 32.139 50.2306 31.719C51.9106 31.257 53.8006 31.026 55.9006 31.026C57.6226 31.026 59.2186 31.194 60.6886 31.53C62.2006 31.824 63.5236 32.286 64.6576 32.916C65.8336 33.504 66.8206 34.26 67.6186 35.184C68.4586 36.066 69.0886 37.095 69.5086 38.271C69.9706 39.447 70.2016 40.77 70.2016 42.24C70.2016 44.172 69.9286 45.81 69.3826 47.154C68.8366 48.498 68.1226 49.653 67.2406 50.619C66.3586 51.543 65.4346 52.383 64.4686 53.139C63.5026 53.853 62.5786 54.567 61.6966 55.281C60.8146 55.995 60.1006 56.793 59.5546 57.675C59.0086 58.557 58.7356 59.628 58.7356 60.888V62.904H51.5536ZM51.1756 75V66.936H59.1136V75H51.1756Z" fill="#4E4E4E"/>
</svg>
