<svg width="24" height="24" viewBox="0 0 24 24" fill="none" xmlns="http://www.w3.org/2000/svg">
<ellipse cx="12" cy="11.9998" rx="12" ry="11.9998" fill="white"/>
<g clip-path="url(#clip0_1516_257)">
<path d="M12.343 4.11523C12.6932 4.11523 12.9797 4.39347 12.9797 4.73665V6.6009H15.5267C16.9315 6.6009 18.0736 7.71363 18.0736 9.08657V14.0579C18.0736 15.4289 16.9315 16.5436 15.5267 16.5436H9.15932C7.75453 16.5436 6.61238 15.4289 6.61238 14.0579V9.08657C6.61238 7.71363 7.75453 6.6009 9.15932 6.6009H11.7063V4.73665C11.7063 4.39347 11.9928 4.11523 12.343 4.11523ZM9.79606 11.5722C10.5004 11.5722 11.0695 11.0168 11.0695 10.3294C11.0695 9.64196 10.5004 9.08657 9.79606 9.08657C9.09167 9.08657 8.52259 9.64196 8.52259 10.3294C8.52259 11.0168 9.09167 11.5722 9.79606 11.5722ZM14.8899 9.08657C14.1855 9.08657 13.6165 9.64196 13.6165 10.3294C13.6165 11.0168 14.1855 11.5722 14.8899 11.5722C15.5943 11.5722 16.1634 11.0168 16.1634 10.3294C16.1634 9.64196 15.5943 9.08657 14.8899 9.08657ZM9.79606 13.4365C9.44585 13.4365 9.15932 13.7161 9.15932 14.0579C9.15932 14.3997 9.44585 14.6793 9.79606 14.6793C10.1463 14.6793 10.4328 14.3997 10.4328 14.0579C10.4328 13.7161 10.1463 13.4365 9.79606 13.4365ZM12.343 14.6793C12.6932 14.6793 12.9797 14.3997 12.9797 14.0579C12.9797 13.7161 12.6932 13.4365 12.343 13.4365C11.9928 13.4365 11.7063 13.7161 11.7063 14.0579C11.7063 14.3997 11.9928 14.6793 12.343 14.6793ZM14.8899 13.4365C14.5397 13.4365 14.2532 13.7161 14.2532 14.0579C14.2532 14.3997 14.5397 14.6793 14.8899 14.6793C15.2401 14.6793 15.5267 14.3997 15.5267 14.0579C15.5267 13.7161 15.2401 13.4365 14.8899 13.4365ZM4.06545 9.70798C4.06545 9.3662 4.35038 9.08657 4.70218 9.08657C5.05398 9.08657 5.33891 9.3662 5.33891 9.70798V13.4365C5.33891 13.7783 5.05398 14.0579 4.70218 14.0579C4.35038 14.0579 4.06545 13.7783 4.06545 13.4365V9.70798ZM19.9838 9.08657C20.334 9.08657 20.6205 9.3662 20.6205 9.70798V13.4365C20.6205 13.7783 20.334 14.0579 19.9838 14.0579C19.6336 14.0579 19.3471 13.7783 19.3471 13.4365V9.70798C19.3471 9.3662 19.6336 9.08657 19.9838 9.08657ZM17.4369 17.7864C19.5461 17.7864 21.2573 19.4215 21.2573 21.5149V22.7577C21.2573 23.4452 20.6882 24.0006 19.9838 24.0006H17.4369V21.5149C17.4369 20.8275 16.8678 20.2721 16.1634 20.2721H8.52259C7.8182 20.2721 7.24912 20.8275 7.24912 21.5149V24.0006H4.70218C3.99899 24.0006 3.42871 23.4452 3.42871 22.7577V21.5149C3.42871 19.4215 5.13914 17.7864 7.24912 17.7864H17.4369ZM10.4328 24.0006H9.15932V22.1363C9.15932 21.7945 9.44585 21.5149 9.79606 21.5149C10.1463 21.5149 10.4328 21.7945 10.4328 22.1363V24.0006ZM12.343 21.5149C12.6932 21.5149 12.9797 21.7945 12.9797 22.1363V24.0006H11.7063V22.1363C11.7063 21.7945 11.9928 21.5149 12.343 21.5149ZM15.5267 24.0006H14.2532V22.1363C14.2532 21.7945 14.5397 21.5149 14.8899 21.5149C15.2401 21.5149 15.5267 21.7945 15.5267 22.1363V24.0006Z" fill="#031D60"/>
</g>
<defs>
<clipPath id="clip0_1516_257">
<rect width="17.8286" height="19.8853" fill="white" transform="translate(3.42871 4.11523)"/>
</clipPath>
</defs>
</svg>
