<svg fill="none" xmlns="http://www.w3.org/2000/svg" viewBox="0 0 22 22"><path d="M22 4.67a4.687 4.687 0 0 1-4.714 4.714c-1.272 0-2.426-.456-3.27-1.276l-4.622 2.308c.025.191-.01.343-.01.584 0 .196.035.349.01.584l4.621 2.308a4.677 4.677 0 0 1 3.27-1.32A4.687 4.687 0 0 1 22 17.285 4.715 4.715 0 0 1 17.286 22a4.687 4.687 0 0 1-4.715-4.714c0-.24.01-.393.035-.585l-4.621-2.308A4.715 4.715 0 0 1 0 11a4.687 4.687 0 0 1 4.714-4.714c1.272 0 2.426.5 3.27 1.32L12.607 5.3a5.147 5.147 0 0 1-.035-.585A4.687 4.687 0 0 1 17.286 0 4.715 4.715 0 0 1 22 4.714V4.67ZM4.67 12.527c.913 0 1.572-.658 1.572-1.571A1.57 1.57 0 0 0 4.67 9.384c-.823 0-1.571.747-1.571 1.572a1.57 1.57 0 0 0 1.571 1.571ZM17.286 3.1c-.87 0-1.572.746-1.572 1.571 0 .913.702 1.572 1.572 1.572.869 0 1.571-.659 1.571-1.572 0-.825-.702-1.571-1.571-1.571Zm0 15.758a1.57 1.57 0 0 0 1.571-1.571 1.57 1.57 0 0 0-1.571-1.572 1.57 1.57 0 0 0-1.572 1.572c0 .869.702 1.571 1.572 1.571Z" fill="url(#a)"/><defs><linearGradient id="a" x1="11" y1="0" x2="11" y2="22" gradientUnits="userSpaceOnUse"><stop offset=".021" stop-color="#7E30E1"/><stop offset=".609" stop-color="#0072F7"/><stop offset=".911" stop-color="#67ADFF"/></linearGradient></defs></svg>