<svg width="38" height="38" viewBox="0 0 38 38" fill="none" xmlns="http://www.w3.org/2000/svg">
<circle cx="19" cy="19" r="19" fill="white"/>
<path d="M25.0007 25C25.2565 25 25.5125 24.9023 25.7075 24.707L30.7071 19.707C31.0976 19.3164 31.0976 18.6836 30.7071 18.293L25.7075 13.293C25.3169 12.9023 24.6842 12.9023 24.2936 13.293C23.903 13.6836 23.903 14.3164 24.2936 14.707L28.5863 19L24.2929 23.2938C23.9024 23.6844 23.9024 24.3172 24.2929 24.7078C24.4882 24.9031 24.7445 25 25.0007 25Z" fill="black"/>
<path d="M13.9993 13C13.7435 13 13.4875 13.0977 13.2925 13.293L8.29294 18.293C7.90235 18.6836 7.90235 19.3164 8.29294 19.707L13.2925 24.707C13.6831 25.0977 14.3158 25.0977 14.7064 24.707C15.097 24.3164 15.097 23.6836 14.7064 23.293L10.4137 19L14.7071 14.7062C15.0976 14.3156 15.0976 13.6828 14.7071 13.2922C14.5118 13.0969 14.2555 13 13.9993 13Z" fill="black"/>
</svg>
